<?xml version="1.0" encoding="UTF-8" standalone="no"?>
<!-- Created with Inkscape (http://www.inkscape.org/) -->

<svg
   version="1.1"
   id="feather"
   width="254.8595"
   height="253.9268"
   viewBox="0 0 254.8595 253.9268"
   xmlns="http://www.w3.org/2000/svg">
  <g
     id="g1"
     transform="translate(-127.68298,-73.463783)">
    <path
       style="fill:#000000"
       d="m 127.68301,327.29123 c 0,-0.89348 5.1389,-15.0443 9.21454,-25.37376 26.77452,-67.85838 63.16659,-126.97908 102.0511,-165.78703 20.02524,-19.9858 38.75207,-33.95635 59.58672,-44.452719 20.88555,-10.522018 41.02846,-16.174793 63.51897,-17.82555 8.01031,-0.587941 19.77782,-0.49009 20.43786,0.169946 0.85679,0.85679 -9.42793,12.213576 -16.20723,17.896661 -10.14809,8.507132 -23.87824,16.471422 -36.60077,21.230582 -5.25961,1.96748 -10.33001,3.52157 -19.25119,5.90054 l -2.5,0.66666 5.5,0.40195 c 11.08532,0.81015 26.04195,-0.45075 35.375,-2.98225 2.40625,-0.65267 4.375,-1.0843 4.375,-0.95918 0,0.12511 -0.76692,1.74062 -1.70427,3.59 -8.41191,16.59671 -26.65544,29.80302 -50.22438,36.35691 -5.69537,1.58373 -15.98342,3.55103 -21.07135,4.02929 -2.0625,0.19388 -4.04671,0.51046 -4.40936,0.70352 -0.60124,0.32007 7.5123,2.19298 15.31151,3.53447 11.79465,2.02872 27.50518,2.64165 33.22285,1.29616 3.53456,-0.83176 3.54929,-0.75673 0.88571,4.50927 -3.35191,6.62687 -9.90342,13.40591 -18.26071,18.8949 -12.3015,8.07952 -25.96963,13.4648 -48.75,19.20768 -12.4321,3.1341 -16.38916,4.4276 -19.04007,6.22388 -2.10678,1.42758 -2.29526,2.11366 -0.84218,3.06575 2.74295,1.79725 26.62555,4.94275 37.95709,4.9992 7.88805,0.0393 8.29934,0.0892 7.83875,0.95134 -0.26735,0.50043 -2.77603,3.20782 -5.57484,6.01643 -14.71901,14.77054 -34.13965,24.09426 -58.58875,28.12807 -3.50471,0.57823 -9.80524,0.91775 -21.06795,1.13529 l -16.06794,0.31035 -27.10438,33.75 c -28.19785,35.11158 -28.00973,34.88047 -28.00973,34.41164 z"
       id="featherPath" />
  </g>
</svg>
